<svg width="161" height="12" viewBox="0 0 161 12" fill="none" xmlns="http://www.w3.org/2000/svg">
<path d="M1.352 1.242V11H0.0780001V1.242H1.352ZM7.26131 3.188C8.19465 3.188 8.95065 3.47267 9.52931 4.042C10.108 4.602 10.3973 5.414 10.3973 6.478V11H9.13731V6.66C9.13731 5.89467 8.94598 5.31133 8.56331 4.91C8.18065 4.49933 7.65798 4.294 6.99531 4.294C6.32331 4.294 5.78665 4.504 5.38531 4.924C4.99331 5.344 4.79731 5.95533 4.79731 6.758V11H3.52331V3.328H4.79731V4.42C5.04931 4.028 5.38998 3.72467 5.81931 3.51C6.25798 3.29533 6.73865 3.188 7.26131 3.188ZM15.1944 11.126C14.6064 11.126 14.0791 11.028 13.6124 10.832C13.1457 10.6267 12.7771 10.3467 12.5064 9.992C12.2357 9.628 12.0864 9.21267 12.0584 8.746H13.3744C13.4117 9.12867 13.5891 9.44133 13.9064 9.684C14.2331 9.92667 14.6577 10.048 15.1804 10.048C15.6657 10.048 16.0484 9.94067 16.3284 9.726C16.6084 9.51133 16.7484 9.24067 16.7484 8.914C16.7484 8.578 16.5991 8.33067 16.3004 8.172C16.0017 8.004 15.5397 7.84067 14.9144 7.682C14.3451 7.53267 13.8784 7.38333 13.5144 7.234C13.1597 7.07533 12.8517 6.84667 12.5904 6.548C12.3384 6.24 12.2124 5.83867 12.2124 5.344C12.2124 4.952 12.3291 4.59267 12.5624 4.266C12.7957 3.93933 13.1271 3.68267 13.5564 3.496C13.9857 3.3 14.4757 3.202 15.0264 3.202C15.8757 3.202 16.5617 3.41667 17.0844 3.846C17.6071 4.27533 17.8871 4.86333 17.9244 5.61H16.6504C16.6224 5.20867 16.4591 4.88667 16.1604 4.644C15.8711 4.40133 15.4791 4.28 14.9844 4.28C14.5271 4.28 14.1631 4.378 13.8924 4.574C13.6217 4.77 13.4864 5.02667 13.4864 5.344C13.4864 5.596 13.5657 5.806 13.7244 5.974C13.8924 6.13267 14.0977 6.26333 14.3404 6.366C14.5924 6.45933 14.9377 6.56667 15.3764 6.688C15.9271 6.83733 16.3751 6.98667 16.7204 7.136C17.0657 7.276 17.3597 7.49067 17.6024 7.78C17.8544 8.06933 17.9851 8.44733 17.9944 8.914C17.9944 9.334 17.8777 9.712 17.6444 10.048C17.4111 10.384 17.0797 10.65 16.6504 10.846C16.2304 11.0327 15.7451 11.126 15.1944 11.126ZM20.4508 2.082C20.2082 2.082 20.0028 1.998 19.8348 1.83C19.6668 1.662 19.5828 1.45667 19.5828 1.214C19.5828 0.971333 19.6668 0.766 19.8348 0.598C20.0028 0.43 20.2082 0.345999 20.4508 0.345999C20.6842 0.345999 20.8802 0.43 21.0388 0.598C21.2068 0.766 21.2908 0.971333 21.2908 1.214C21.2908 1.45667 21.2068 1.662 21.0388 1.83C20.8802 1.998 20.6842 2.082 20.4508 2.082ZM21.0668 3.328V11H19.7928V3.328H21.0668ZM24.5122 4.574C24.7362 4.13533 25.0535 3.79467 25.4642 3.552C25.8842 3.30933 26.3928 3.188 26.9902 3.188V4.504H26.6542C25.2262 4.504 24.5122 5.27867 24.5122 6.828V11H23.2382V3.328H24.5122V4.574ZM27.9848 7.136C27.9848 6.352 28.1435 5.666 28.4608 5.078C28.7781 4.48067 29.2121 4.01867 29.7628 3.692C30.3228 3.36533 30.9435 3.202 31.6248 3.202C32.2968 3.202 32.8801 3.34667 33.3748 3.636C33.8695 3.92533 34.2381 4.28933 34.4808 4.728V3.328H35.7688V11H34.4808V9.572C34.2288 10.02 33.8508 10.3933 33.3468 10.692C32.8521 10.9813 32.2735 11.126 31.6108 11.126C30.9295 11.126 30.3135 10.958 29.7628 10.622C29.2121 10.286 28.7781 9.81467 28.4608 9.208C28.1435 8.60133 27.9848 7.91067 27.9848 7.136ZM34.4808 7.15C34.4808 6.57133 34.3641 6.06733 34.1308 5.638C33.8975 5.20867 33.5801 4.882 33.1788 4.658C32.7868 4.42467 32.3528 4.308 31.8768 4.308C31.4008 4.308 30.9668 4.42 30.5748 4.644C30.1828 4.868 29.8701 5.19467 29.6368 5.624C29.4035 6.05333 29.2868 6.55733 29.2868 7.136C29.2868 7.724 29.4035 8.23733 29.6368 8.676C29.8701 9.10533 30.1828 9.43667 30.5748 9.67C30.9668 9.894 31.4008 10.006 31.8768 10.006C32.3528 10.006 32.7868 9.894 33.1788 9.67C33.5801 9.43667 33.8975 9.10533 34.1308 8.676C34.3641 8.23733 34.4808 7.72867 34.4808 7.15ZM48.4582 3.328V11H47.1842V9.866C46.9415 10.258 46.6008 10.566 46.1622 10.79C45.7328 11.0047 45.2568 11.112 44.7342 11.112C44.1368 11.112 43.6002 10.9907 43.1242 10.748C42.6482 10.496 42.2702 10.1227 41.9902 9.628C41.7195 9.13333 41.5842 8.53133 41.5842 7.822V3.328H42.8442V7.654C42.8442 8.41 43.0355 8.99333 43.4182 9.404C43.8008 9.80533 44.3235 10.006 44.9862 10.006C45.6675 10.006 46.2042 9.796 46.5962 9.376C46.9882 8.956 47.1842 8.34467 47.1842 7.542V3.328H48.4582ZM59.8353 3.188C60.4326 3.188 60.9646 3.314 61.4313 3.566C61.8979 3.80867 62.2666 4.17733 62.5373 4.672C62.8079 5.16667 62.9433 5.76867 62.9433 6.478V11H61.6833V6.66C61.6833 5.89467 61.4919 5.31133 61.1093 4.91C60.7359 4.49933 60.2273 4.294 59.5833 4.294C58.9206 4.294 58.3933 4.50867 58.0013 4.938C57.6093 5.358 57.4133 5.96933 57.4133 6.772V11H56.1533V6.66C56.1533 5.89467 55.9619 5.31133 55.5793 4.91C55.2059 4.49933 54.6973 4.294 54.0533 4.294C53.3906 4.294 52.8633 4.50867 52.4713 4.938C52.0793 5.358 51.8833 5.96933 51.8833 6.772V11H50.6093V3.328H51.8833V4.434C52.1353 4.03267 52.4713 3.72467 52.8913 3.51C53.3206 3.29533 53.7919 3.188 54.3053 3.188C54.9493 3.188 55.5186 3.33267 56.0133 3.622C56.5079 3.91133 56.8766 4.336 57.1193 4.896C57.3339 4.35467 57.6886 3.93467 58.1833 3.636C58.6779 3.33733 59.2286 3.188 59.8353 3.188ZM75.7655 6.87C75.7655 7.11267 75.7515 7.36933 75.7235 7.64H69.5915C69.6382 8.396 69.8948 8.98867 70.3615 9.418C70.8375 9.838 71.4115 10.048 72.0835 10.048C72.6342 10.048 73.0915 9.922 73.4555 9.67C73.8288 9.40867 74.0902 9.06333 74.2395 8.634H75.6115C75.4062 9.37133 74.9955 9.97333 74.3795 10.44C73.7635 10.8973 72.9982 11.126 72.0835 11.126C71.3555 11.126 70.7022 10.9627 70.1235 10.636C69.5542 10.3093 69.1062 9.84733 68.7795 9.25C68.4528 8.64333 68.2895 7.94333 68.2895 7.15C68.2895 6.35667 68.4482 5.66133 68.7655 5.064C69.0828 4.46667 69.5262 4.00933 70.0955 3.692C70.6742 3.36533 71.3368 3.202 72.0835 3.202C72.8115 3.202 73.4555 3.36067 74.0155 3.678C74.5755 3.99533 75.0048 4.434 75.3035 4.994C75.6115 5.54467 75.7655 6.17 75.7655 6.87ZM74.4495 6.604C74.4495 6.11867 74.3422 5.70333 74.1275 5.358C73.9128 5.00333 73.6188 4.73733 73.2455 4.56C72.8815 4.37333 72.4755 4.28 72.0275 4.28C71.3835 4.28 70.8328 4.48533 70.3755 4.896C69.9275 5.30667 69.6708 5.876 69.6055 6.604H74.4495ZM82.7671 5.33V6.408H77.1811V5.33H82.7671ZM94.3841 3.188C94.9814 3.188 95.5134 3.314 95.9801 3.566C96.4467 3.80867 96.8154 4.17733 97.0861 4.672C97.3567 5.16667 97.4921 5.76867 97.4921 6.478V11H96.2321V6.66C96.2321 5.89467 96.0407 5.31133 95.6581 4.91C95.2847 4.49933 94.7761 4.294 94.1321 4.294C93.4694 4.294 92.9421 4.50867 92.5501 4.938C92.1581 5.358 91.9621 5.96933 91.9621 6.772V11H90.7021V6.66C90.7021 5.89467 90.5107 5.31133 90.1281 4.91C89.7547 4.49933 89.2461 4.294 88.6021 4.294C87.9394 4.294 87.4121 4.50867 87.0201 4.938C86.6281 5.358 86.4321 5.96933 86.4321 6.772V11H85.1581V3.328H86.4321V4.434C86.6841 4.03267 87.0201 3.72467 87.4401 3.51C87.8694 3.29533 88.3407 3.188 88.8541 3.188C89.4981 3.188 90.0674 3.33267 90.5621 3.622C91.0567 3.91133 91.4254 4.336 91.6681 4.896C91.8827 4.35467 92.2374 3.93467 92.7321 3.636C93.2267 3.33733 93.7774 3.188 94.3841 3.188ZM99.1059 7.136C99.1059 6.352 99.2646 5.666 99.5819 5.078C99.8992 4.48067 100.333 4.01867 100.884 3.692C101.444 3.36533 102.065 3.202 102.746 3.202C103.418 3.202 104.001 3.34667 104.496 3.636C104.991 3.92533 105.359 4.28933 105.602 4.728V3.328H106.89V11H105.602V9.572C105.35 10.02 104.972 10.3933 104.468 10.692C103.973 10.9813 103.395 11.126 102.732 11.126C102.051 11.126 101.435 10.958 100.884 10.622C100.333 10.286 99.8992 9.81467 99.5819 9.208C99.2646 8.60133 99.1059 7.91067 99.1059 7.136ZM105.602 7.15C105.602 6.57133 105.485 6.06733 105.252 5.638C105.019 5.20867 104.701 4.882 104.3 4.658C103.908 4.42467 103.474 4.308 102.998 4.308C102.522 4.308 102.088 4.42 101.696 4.644C101.304 4.868 100.991 5.19467 100.758 5.624C100.525 6.05333 100.408 6.55733 100.408 7.136C100.408 7.724 100.525 8.23733 100.758 8.676C100.991 9.10533 101.304 9.43667 101.696 9.67C102.088 9.894 102.522 10.006 102.998 10.006C103.474 10.006 103.908 9.894 104.3 9.67C104.701 9.43667 105.019 9.10533 105.252 8.676C105.485 8.23733 105.602 7.72867 105.602 7.15ZM109.701 2.082C109.458 2.082 109.253 1.998 109.085 1.83C108.917 1.662 108.833 1.45667 108.833 1.214C108.833 0.971333 108.917 0.766 109.085 0.598C109.253 0.43 109.458 0.345999 109.701 0.345999C109.934 0.345999 110.13 0.43 110.289 0.598C110.457 0.766 110.541 0.971333 110.541 1.214C110.541 1.45667 110.457 1.662 110.289 1.83C110.13 1.998 109.934 2.082 109.701 2.082ZM110.317 3.328V11H109.043V3.328H110.317ZM113.762 0.64V11H112.488V0.64H113.762ZM122.522 9.824L124.902 3.328H126.26L123.25 11H121.766L118.756 3.328H120.128L122.522 9.824ZM127.038 7.136C127.038 6.352 127.196 5.666 127.514 5.078C127.831 4.48067 128.265 4.01867 128.816 3.692C129.376 3.36533 129.996 3.202 130.678 3.202C131.35 3.202 131.933 3.34667 132.428 3.636C132.922 3.92533 133.291 4.28933 133.534 4.728V3.328H134.822V11H133.534V9.572C133.282 10.02 132.904 10.3933 132.4 10.692C131.905 10.9813 131.326 11.126 130.664 11.126C129.982 11.126 129.366 10.958 128.816 10.622C128.265 10.286 127.831 9.81467 127.514 9.208C127.196 8.60133 127.038 7.91067 127.038 7.136ZM133.534 7.15C133.534 6.57133 133.417 6.06733 133.184 5.638C132.95 5.20867 132.633 4.882 132.232 4.658C131.84 4.42467 131.406 4.308 130.93 4.308C130.454 4.308 130.02 4.42 129.628 4.644C129.236 4.868 128.923 5.19467 128.69 5.624C128.456 6.05333 128.34 6.55733 128.34 7.136C128.34 7.724 128.456 8.23733 128.69 8.676C128.923 9.10533 129.236 9.43667 129.628 9.67C130.02 9.894 130.454 10.006 130.93 10.006C131.406 10.006 131.84 9.894 132.232 9.67C132.633 9.43667 132.95 9.10533 133.184 8.676C133.417 8.23733 133.534 7.72867 133.534 7.15ZM132.54 1.158L129.558 2.754V1.802L132.54 0.0519991V1.158ZM138.248 0.64V11H136.974V0.64H138.248ZM141.078 2.082C140.835 2.082 140.63 1.998 140.462 1.83C140.294 1.662 140.21 1.45667 140.21 1.214C140.21 0.971333 140.294 0.766 140.462 0.598C140.63 0.43 140.835 0.345999 141.078 0.345999C141.311 0.345999 141.507 0.43 141.666 0.598C141.834 0.766 141.918 0.971333 141.918 1.214C141.918 1.45667 141.834 1.662 141.666 1.83C141.507 1.998 141.311 2.082 141.078 2.082ZM141.694 3.328V11H140.42V3.328H141.694ZM143.389 7.136C143.389 6.352 143.548 5.666 143.865 5.078C144.182 4.48067 144.616 4.01867 145.167 3.692C145.727 3.36533 146.352 3.202 147.043 3.202C147.64 3.202 148.196 3.342 148.709 3.622C149.222 3.89267 149.614 4.252 149.885 4.7V0.64H151.173V11H149.885V9.558C149.633 10.0153 149.26 10.3933 148.765 10.692C148.27 10.9813 147.692 11.126 147.029 11.126C146.348 11.126 145.727 10.958 145.167 10.622C144.616 10.286 144.182 9.81467 143.865 9.208C143.548 8.60133 143.389 7.91067 143.389 7.136ZM149.885 7.15C149.885 6.57133 149.768 6.06733 149.535 5.638C149.302 5.20867 148.984 4.882 148.583 4.658C148.191 4.42467 147.757 4.308 147.281 4.308C146.805 4.308 146.371 4.42 145.979 4.644C145.587 4.868 145.274 5.19467 145.041 5.624C144.808 6.05333 144.691 6.55733 144.691 7.136C144.691 7.724 144.808 8.23733 145.041 8.676C145.274 9.10533 145.587 9.43667 145.979 9.67C146.371 9.894 146.805 10.006 147.281 10.006C147.757 10.006 148.191 9.894 148.583 9.67C148.984 9.43667 149.302 9.10533 149.535 8.676C149.768 8.23733 149.885 7.72867 149.885 7.15ZM156.672 11.126C155.953 11.126 155.3 10.9627 154.712 10.636C154.133 10.3093 153.676 9.84733 153.34 9.25C153.013 8.64333 152.85 7.94333 152.85 7.15C152.85 6.366 153.018 5.67533 153.354 5.078C153.699 4.47133 154.166 4.00933 154.754 3.692C155.342 3.36533 156 3.202 156.728 3.202C157.456 3.202 158.114 3.36533 158.702 3.692C159.29 4.00933 159.752 4.46667 160.088 5.064C160.433 5.66133 160.606 6.35667 160.606 7.15C160.606 7.94333 160.429 8.64333 160.074 9.25C159.729 9.84733 159.257 10.3093 158.66 10.636C158.063 10.9627 157.4 11.126 156.672 11.126ZM156.672 10.006C157.129 10.006 157.559 9.89867 157.96 9.684C158.361 9.46933 158.683 9.14733 158.926 8.718C159.178 8.28867 159.304 7.766 159.304 7.15C159.304 6.534 159.183 6.01133 158.94 5.582C158.697 5.15267 158.38 4.83533 157.988 4.63C157.596 4.41533 157.171 4.308 156.714 4.308C156.247 4.308 155.818 4.41533 155.426 4.63C155.043 4.83533 154.735 5.15267 154.502 5.582C154.269 6.01133 154.152 6.534 154.152 7.15C154.152 7.77533 154.264 8.30267 154.488 8.732C154.721 9.16133 155.029 9.48333 155.412 9.698C155.795 9.90333 156.215 10.006 156.672 10.006Z" fill="#DC2626"/>
</svg>
